<?xml version="1.0" encoding="UTF-8"?>
<svg version="1.1" xmlns="http://www.w3.org/2000/svg" width="512" height="512">
<path d="M0 0 C1.09441406 1.11375 1.09441406 1.11375 2.2109375 2.25 C13.81587764 13.69240597 26.47476559 20.32634875 42.9375 20.4375 C43.79279297 20.47037109 44.64808594 20.50324219 45.52929688 20.53710938 C51.82995103 20.58997528 56.19897513 19.16967102 61 15 C64.02916171 11.14006988 65.63120589 6.67671323 67 2 C71.57061575 4.52655918 75.43249685 7.68378 79.4375 11 C80.87292766 12.17802252 82.30913921 13.35509045 83.74609375 14.53125 C84.46265137 15.11777344 85.17920898 15.70429688 85.91748047 16.30859375 C88.91566364 18.74369493 91.95455894 21.12447675 95 23.5 C96.71829933 24.84869258 98.43549088 26.1987831 100.15234375 27.54931641 C101.45515615 28.57221695 102.76004131 29.59248022 104.06640625 30.61083984 C106.21896088 32.29313356 108.36018371 33.98904545 110.5 35.6875 C111.15871094 36.19796875 111.81742187 36.7084375 112.49609375 37.234375 C122.33366366 45.10040738 126.50833815 54.98456967 131.41210938 66.35742188 C138.59656834 82.54364069 147.91973555 90.28034749 163.375 98.3125 C164.63860767 98.97566578 165.90187032 99.63948938 167.16479492 100.30395508 C169.04508064 101.29285954 170.92577648 102.2808931 172.80857849 103.26499939 C176.26441041 105.07349715 179.69110416 106.922438 183.08984375 108.8359375 C189.68314907 112.52459267 195.73976729 115.46330697 203.125 117.1875 C208.91384769 118.54089691 213.42186109 120.04655036 217 125 C219.96035617 131.16963735 219.36835038 137.54052865 219.375 144.25 C219.39949219 145.53519531 219.42398437 146.82039062 219.44921875 148.14453125 C219.48736021 160.54050619 216.45781192 167.17577685 208 176 C206.72258423 177.38274597 205.44524161 178.76555952 204.16796875 180.1484375 C200.75776156 183.78155621 197.32777629 187.39583919 193.89160156 191.00439453 C192.2661178 192.71925053 190.65753509 194.44764751 189.0546875 196.18359375 C183.44554965 202.10044292 178.57923924 206.43516374 170.24121094 207.27929688 C161.16281892 207.46993444 153.16499846 205.48401565 144.5625 202.875 C141.94412378 202.08174574 139.32047499 201.31164531 136.69140625 200.5546875 C135.54873291 200.20905762 134.40605957 199.86342773 133.22875977 199.50732422 C128.57364178 198.7758811 125.61911679 199.87658232 121.7902832 202.53320312 C121.11312256 203.11005859 120.43596191 203.68691406 119.73828125 204.28125 C97.17956088 222.49033617 66.33198206 230.2359827 37.875 230.4375 C36.77341553 230.44773193 35.67183105 230.45796387 34.53686523 230.46850586 C24.14330988 230.3562407 14.41057821 228.30129588 5.125 223.5625 C4.45791016 223.22395996 3.79082031 222.88541992 3.10351562 222.53662109 C-18.47633916 211.0066088 -33.32468621 188.63471418 -41.06640625 165.86328125 C-41.56680896 164.16868076 -42.0464031 162.46759318 -42.4921875 160.7578125 C-42.84978528 158.98918894 -42.84978528 158.98918894 -44 158 C-46.95804573 157.66659529 -46.95804573 157.66659529 -50 158 C-52.29559708 161.44339562 -52.07296632 162.90640332 -51.44970703 166.88183594 C-47.98214949 183.21437082 -37.00484755 201.17296326 -25.23046875 212.71484375 C-23 215 -23 215 -23 217 C-22.40960938 217.26554688 -21.81921875 217.53109375 -21.2109375 217.8046875 C-18.94283948 219.03090304 -17.46647902 220.33351588 -15.625 222.125 C-4.40549756 232.15138371 9.55704046 237.65520292 24.19140625 240.19140625 C25.11824219 240.45824219 26.04507813 240.72507812 27 241 C28.17081655 244.51244965 27.79062693 245.31797639 26.5847168 248.71508789 C26.0837574 250.14655907 26.0837574 250.14655907 25.57267761 251.60694885 C25.20193619 252.63513229 24.83119476 253.66331573 24.44921875 254.72265625 C23.8882122 256.3072892 23.8882122 256.3072892 23.31587219 257.92393494 C22.52233241 260.15893836 21.72428837 262.39234683 20.92211914 264.62426758 C19.69259171 268.04832032 18.47901914 271.47771532 17.26757812 274.90820312 C16.49573398 277.0758566 15.72297805 279.24318567 14.94921875 281.41015625 C14.58455002 282.44036392 14.21988129 283.47057159 13.84416199 284.53199768 C13.50073257 285.48315964 13.15730316 286.43432159 12.8034668 287.41430664 C12.50288864 288.25353165 12.20231049 289.09275665 11.8926239 289.95741272 C11 292 11 292 9 294 C6.55831178 294.22464891 4.23352507 294.32811777 1.7890625 294.3359375 C1.06568695 294.3425943 0.3423114 294.3492511 -0.40298462 294.35610962 C-1.94131937 294.36625158 -3.47969826 294.37092616 -5.01806641 294.37060547 C-7.33183742 294.37491952 -9.64360575 294.41104996 -11.95703125 294.44921875 C-28.03131348 294.57981226 -39.55130261 290.21843944 -51.36891174 279.01876831 C-52.85182546 277.55636979 -54.32691846 276.08600946 -55.79516602 274.60888672 C-56.61122314 273.79969284 -57.42728027 272.99049896 -58.26806641 272.15678406 C-60.93767939 269.5053269 -63.59621028 266.84308572 -66.25390625 264.1796875 C-68.12341116 262.31475033 -69.99328544 260.45018337 -71.86351013 258.58596802 C-75.77323146 254.68623807 -79.67630509 250.77994343 -83.57592773 246.87011719 C-88.05514953 242.37943303 -92.5469724 237.90164962 -97.04531533 233.43012607 C-100.93492202 229.56282594 -104.81655597 225.68764608 -108.69210571 221.80625927 C-110.99454487 219.50048326 -113.30049801 217.19845243 -115.61242867 214.90218735 C-135.23060297 195.39827115 -152.71332853 173.86051429 -153.12025452 144.70350647 C-153.12312195 143.08627418 -153.12056668 141.46902614 -153.11352539 139.85180664 C-153.11367142 138.96320953 -153.11381744 138.07461243 -153.1139679 137.15908813 C-153.11327518 134.24275206 -153.10551297 131.32648107 -153.09765625 128.41015625 C-153.09578979 126.37991877 -153.09436696 124.34968084 -153.09336853 122.31944275 C-153.08956131 116.99135074 -153.07974642 111.66328626 -153.06866455 106.33520508 C-153.05841177 100.89209363 -153.05386264 95.44897771 -153.04882812 90.00585938 C-153.03812248 79.33722753 -153.0210677 68.66861606 -153 58 C-144.69371614 54.23135093 -136.25227922 50.9123466 -127.73266602 47.66186523 C-126.02508535 47.00815258 -124.31936615 46.34955819 -122.61547852 45.6862793 C-120.13693538 44.7215712 -117.65328295 43.77132399 -115.16796875 42.82421875 C-114.40751755 42.52537277 -113.64706635 42.22652679 -112.86357117 41.91862488 C-106.69008889 39.59771924 -106.69008889 39.59771924 -103 41 C-100.9921875 43.40625 -100.9921875 43.40625 -98.875 46.5 C-87.2417123 62.66829815 -70.88692506 71.38071171 -51.375 74.59765625 C-45.10516524 75.63567005 -45.10516524 75.63567005 -39.625 73.16796875 C-37.71008268 71.09227659 -37.71008268 71.09227659 -38.125 68.3125 C-38.76330851 65.83572904 -38.76330851 65.83572904 -41 65 C-43.10577863 64.69020354 -45.21219004 64.3840177 -47.32177734 64.10131836 C-64.08859894 61.79423705 -77.73987295 55.78430673 -89 42.75 C-94.94156016 34.82791978 -99.64539093 25.95089882 -104.58129883 17.38354492 C-105.77845168 15.37222101 -107.02983492 13.45128271 -108.37109375 11.53515625 C-110.34573319 8.46191645 -110.41712701 6.58729227 -110 3 C-108.16371913 1.16371913 -105.21800578 1.85306081 -102.75537109 1.83886719 C-101.77715393 1.83141983 -101.77715393 1.83141983 -100.7791748 1.82382202 C-98.61058511 1.80915843 -96.44206874 1.80238897 -94.2734375 1.796875 C-92.7670593 1.79112381 -91.26068113 1.78536608 -89.75430298 1.77960205 C-86.58831439 1.76907797 -83.42235129 1.76324558 -80.25634766 1.75976562 C-76.21121799 1.75429978 -72.16642816 1.73031914 -68.12140465 1.70179367 C-65.00545292 1.68310459 -61.88958167 1.67795821 -58.77357864 1.67642975 C-57.28332297 1.67341316 -55.79306838 1.66541834 -54.30286789 1.65224457 C-52.2086545 1.63506387 -50.11525263 1.63709368 -48.02099609 1.64355469 C-46.83154388 1.63990906 -45.64209167 1.63626343 -44.41659546 1.63250732 C-37.84900641 2.33892425 -33.32868715 4.94856481 -29 10 C-27.65567447 11.95901218 -26.3746214 13.96260529 -25.15234375 16 C-24.81376846 16.55816406 -24.47519318 17.11632812 -24.12635803 17.69140625 C-23.05658706 19.45692872 -21.99642331 21.22795387 -20.9375 23 C-19.87374725 24.77122931 -18.80787705 26.54109874 -17.7379303 28.30859375 C-16.76850783 29.91128047 -15.80580648 31.51802701 -14.84350586 33.125 C-13.0427248 35.93336946 -11.22905152 38.51657801 -9 41 C-6.41417872 41.58402133 -6.41417872 41.58402133 -4 41 C-1.67069902 39.13050094 -1.67069902 39.13050094 -1.9296875 36.109375 C-2.97379886 30.16502417 -6.90589575 25.21929685 -10.125 20.25 C-11.44935345 18.19865022 -12.76495027 16.14161171 -14.0703125 14.078125 C-14.65570801 13.17481445 -15.24110352 12.27150391 -15.84423828 11.34082031 C-17 9 -17 9 -16 6 C-13.30964974 4.79942024 -10.71151241 3.77191505 -7.9375 2.8125 C-7.17888672 2.53986328 -6.42027344 2.26722656 -5.63867188 1.98632812 C-3.7628008 1.31384604 -1.88184797 0.65557049 0 0 Z M48.12207031 65.40991211 C46.68386216 67.44799951 46 68.46714575 46 71 C47.65702801 73.99657789 47.65702801 73.99657789 51 76 C54.70467558 76.42086777 58.28852772 76.29249782 62 76 C61.938125 77.2375 61.87625 78.475 61.8125 79.75 C61.82718516 82.51081041 61.97274177 83.93942616 63.125 86.5 C64.9985579 88.25790052 64.9985579 88.25790052 68 88.4375 C71.32776576 87.95220083 72.03513346 87.61982205 74 85 C74.36146457 82.71669899 74.36146457 82.71669899 74.1875 80.3125 C74.16042969 79.50425781 74.13335937 78.69601563 74.10546875 77.86328125 C74.05326172 76.94095703 74.05326172 76.94095703 74 76 C76.97 76.495 76.97 76.495 80 77 C80.05607422 78.21236328 80.05607422 78.21236328 80.11328125 79.44921875 C80.17902344 80.51785156 80.24476563 81.58648437 80.3125 82.6875 C80.37050781 83.74324219 80.42851562 84.79898438 80.48828125 85.88671875 C81.04492534 89.27332439 81.96369218 91.25691544 84 94 C86.39351495 95.16210219 86.39351495 95.16210219 89 95 C91.27900031 94.1097478 91.27900031 94.1097478 93 92 C93.40985695 89.09483748 93.55943118 86.64727025 93.5 83.75 C93.51546875 83.01136719 93.5309375 82.27273437 93.546875 81.51171875 C93.50884473 76.12092765 92.46835688 72.18603076 89 68 C83.94353455 64.54728746 80.66476697 63.49490283 74.421875 63.50390625 C73.72862122 63.50245102 73.03536743 63.50099579 72.32110596 63.49949646 C70.86897539 63.50114433 69.41682531 63.51257988 67.96484375 63.53344727 C65.74143868 63.5626123 63.52039254 63.55399431 61.296875 63.54101562 C54.32821413 63.09556893 54.32821413 63.09556893 48.12207031 65.40991211 Z M185 131 C183.17488107 136.4753568 183.17282928 141.87712063 185.5625 147.1875 C188.61662329 152.63275184 193.31792175 156.49622709 199 159 C201.85324516 159.34795673 203.35374792 159.40112198 205.8125 157.875 C207.57002414 155.09996189 207.46822746 153.21070255 207 150 C205.3450486 148.19546354 205.3450486 148.19546354 203 147 C198.06557377 144.13114754 198.06557377 144.13114754 197 142 C196.76433251 139.21126807 196.61798783 136.42391743 196.4765625 133.62890625 C195.94353661 130.68852574 195.38956448 129.73734036 193 128 C189.15114062 127.42267109 187.33489772 127.84788808 185 131 Z " fill="#FFFEFE" transform="translate(223,135)"/>
<path d="M0 0 C1.08396057 -0.00043808 1.08396057 -0.00043808 2.18981934 -0.00088501 C4.55977719 0.00049962 6.92941401 0.01601951 9.29931641 0.03173828 C10.94983753 0.0354715 12.60036087 0.03831701 14.25088501 0.04031372 C18.58113799 0.04792586 22.91125541 0.06755342 27.24145508 0.08972168 C31.66567145 0.11023237 36.08990987 0.11932658 40.51416016 0.12939453 C49.18479507 0.15080173 57.85532009 0.18490827 66.52587891 0.22705078 C65.52587891 2.22705078 65.52587891 2.22705078 63.63719177 3.04806519 C62.81082718 3.31579742 61.98446259 3.58352966 61.13305664 3.859375 C60.19795761 4.1666452 59.26285858 4.47391541 58.29942322 4.79049683 C56.76989769 5.28116135 56.76989769 5.28116135 55.20947266 5.78173828 C54.16445084 6.12455841 53.11942902 6.46737854 52.04273987 6.82058716 C48.68523416 7.92154045 45.3246794 9.01274266 41.96337891 10.10205078 C38.62721821 11.18463481 35.29189995 12.26950799 31.95899963 13.36209106 C29.88292946 14.04258763 27.80499118 14.71741938 25.72496033 15.38571167 C15.01524103 18.45405338 15.01524103 18.45405338 7.15869141 25.64892578 C4.76672113 31.31508588 4.17794794 37.42266947 3.40087891 43.47705078 C3.09191122 45.79558513 2.77705336 48.11334417 2.45556641 50.43017578 C2.25809814 51.95626465 2.25809814 51.95626465 2.05664062 53.51318359 C1.5467562 56.12030193 0.93316511 57.98440979 -0.47412109 60.22705078 C-6.41643869 63.19820958 -17.30294794 61.97343666 -23.67724609 60.47314453 C-30.46962466 57.8166161 -36.86676228 53.95134506 -41.47412109 48.22705078 C-41.12642388 44.25995122 -39.60037294 41.15810407 -37.77880859 37.65673828 C-36.95123047 36.06345703 -36.95123047 36.06345703 -36.10693359 34.43798828 C-35.23681641 32.78669922 -35.23681641 32.78669922 -34.34912109 31.10205078 C-33.79224609 30.02439453 -33.23537109 28.94673828 -32.66162109 27.83642578 C-20.81754733 5.18531697 -20.81754733 5.18531697 -10.72640991 1.12014771 C-7.01576534 0.1011837 -3.84751602 -0.01313145 0 0 Z " fill="#FFFEFE" transform="translate(276.47412109375,82.77294921875)"/>
<path d="M0 0 C2.27861006 0.03017812 4.55725922 0.05753987 6.8359375 0.08203125 C12.34982987 0.14730774 17.86222466 0.24701639 23.375 0.375 C23.375 1.035 23.375 1.695 23.375 2.375 C17.75589488 4.29615346 12.13658323 6.21670127 6.51708984 8.13671875 C4.61045919 8.78825014 2.7038824 9.43993919 0.79736328 10.09179688 C-1.05471794 10.72502024 -2.90688478 11.35799324 -4.75914001 11.9907074 C-6.56812755 12.60880844 -8.37685615 13.22766786 -10.18531799 13.8473053 C-13.95598375 15.13670941 -17.72681642 16.41871778 -21.52319336 17.63061523 C-22.59190674 17.97294189 -23.66062012 18.31526855 -24.76171875 18.66796875 C-26.091427 19.08212036 -26.091427 19.08212036 -27.44799805 19.50463867 C-30.63400007 20.77839635 -32.51541364 22.72100425 -34.625 25.375 C-35.61540833 26.38450054 -36.61360511 27.38652624 -37.625 28.375 C-49.05993338 21.42336649 -49.05993338 21.42336649 -50.375 16.65625 C-50.17451168 13.81599876 -49.94587684 11.90706149 -48.625 9.375 C-33.96436447 -0.71521882 -17.03238621 -0.3968566 0 0 Z " fill="#FFFEFE" transform="translate(341.625,104.625)"/>
</svg>
